<svg width="105" height="105" viewBox="0 0 105 105" fill="none" xmlns="http://www.w3.org/2000/svg">
<g clip-path="url(#clip0)">
<path d="M51.872 82.96C58.656 82.96 64.8 81.488 70.304 78.544C75.744 75.536 80.032 71.408 83.168 66.16C86.24 60.912 87.776 54.992 87.776 48.4C87.776 41.808 86.208 35.888 83.072 30.64C79.936 25.392 75.648 21.296 70.208 18.352C64.704 15.344 58.56 13.84 51.776 13.84C46.272 13.84 41.248 14.8 36.704 16.72C32.16 18.64 28.32 21.424 25.184 25.072L33.248 32.656C38.112 27.408 44.096 24.784 51.2 24.784C55.808 24.784 59.936 25.808 63.584 27.856C67.232 29.84 70.08 32.624 72.128 36.208C74.176 39.792 75.2 43.856 75.2 48.4C75.2 52.944 74.176 57.008 72.128 60.592C70.08 64.176 67.232 66.992 63.584 69.04C59.936 71.024 55.808 72.016 51.2 72.016C44.096 72.016 38.112 69.36 33.248 64.048L25.184 71.728C28.32 75.376 32.192 78.16 36.8 80.08C41.344 82 46.368 82.96 51.872 82.96Z" fill="black"/>
<path d="M64.992 92L51.264 72.32C50.688 72.384 49.824 72.416 48.672 72.416H33.504V92H21.024V24.8H48.672C54.496 24.8 59.552 25.76 63.84 27.68C68.192 29.6 71.52 32.352 73.824 35.936C76.128 39.52 77.28 43.776 77.28 48.704C77.28 53.76 76.032 58.112 73.536 61.76C71.104 65.408 67.584 68.128 62.976 69.92L78.432 92H64.992ZM64.704 48.704C64.704 44.416 63.296 41.12 60.48 38.816C57.664 36.512 53.536 35.36 48.096 35.36H33.504V62.144H48.096C53.536 62.144 57.664 60.992 60.48 58.688C63.296 56.32 64.704 52.992 64.704 48.704Z" fill="#B2FFC8"/>
</g>
<defs>
<clipPath id="clip0">
<rect width="105" height="105" fill="white"/>
</clipPath>
</defs>
</svg>
